<?xml version="1.0" standalone="no"?>
<!DOCTYPE svg PUBLIC "-//W3C//DTD SVG 20010904//EN"
 "http://www.w3.org/TR/2001/REC-SVG-20010904/DTD/svg10.dtd">
<svg version="1.0" xmlns="http://www.w3.org/2000/svg"
 width="260.000000pt" height="260.000000pt" viewBox="0 0 260.000000 260.000000"
 preserveAspectRatio="xMidYMid meet">
<metadata>
Created by potrace 1.11, written by Peter Selinger 2001-2013
</metadata>
<g transform="translate(0.000000,260.000000) scale(0.100000,-0.100000)"
fill="#000000" stroke="none">
<path d="M0 1300 l0 -1300 1300 0 1300 0 0 1300 0 1300 -1300 0 -1300 0 0
-1300z m1938 683 c-12 -185 -111 -284 -294 -296 -50 -4 -120 -16 -157 -27 -60
-19 -69 -25 -88 -62 -11 -22 -26 -68 -33 -102 -12 -60 -13 -61 -47 -64 -76 -6
-100 82 -53 189 55 124 135 173 296 183 70 5 111 13 151 30 51 23 55 28 75 83
11 32 24 77 27 101 l7 42 60 0 61 0 -5 -77z m-1360 -646 c16 -10 17 -153 1
-163 -16 -9 -120 -11 -146 -2 -21 7 -23 14 -23 82 0 60 3 77 17 84 19 11 132
10 151 -1z m267 -4 c21 -21 21 -136 0 -153 -18 -15 -121 -20 -147 -7 -25 11
-26 151 -2 165 27 15 133 12 149 -5z m263 4 c8 -6 12 -34 12 -82 0 -61 -3 -76
-17 -83 -27 -13 -144 -6 -154 10 -15 23 -11 135 6 152 16 16 128 18 153 3z
m270 0 c16 -10 17 -153 1 -163 -16 -9 -120 -11 -146 -2 -21 7 -23 14 -23 82 0
60 3 77 17 84 19 11 132 10 151 -1z m267 -4 c17 -16 21 -128 6 -151 -10 -16
-127 -23 -153 -10 -25 12 -26 152 -2 166 27 15 133 12 149 -5z m263 4 c8 -6
12 -34 12 -82 0 -87 -4 -91 -92 -89 -77 1 -88 12 -88 90 0 83 11 94 93 91 34
-2 68 -6 75 -10z m270 0 c16 -10 17 -153 1 -163 -16 -9 -120 -11 -146 -2 -21
7 -23 14 -23 82 0 60 3 77 17 84 19 11 132 10 151 -1z m-1470 -266 c9 -5 12
-30 10 -87 l-3 -79 -144 -3 c-109 -2 -146 1 -153 10 -12 20 -10 142 4 156 14
14 265 17 286 3z m270 -3 c7 -7 12 -40 12 -78 0 -38 -5 -71 -12 -78 -7 -7 -40
-12 -78 -12 -38 0 -71 5 -78 12 -7 7 -12 40 -12 78 0 38 5 71 12 78 7 7 40 12
78 12 38 0 71 -5 78 -12z m272 -7 c14 -27 13 -124 -3 -145 -10 -14 -25 -16
-87 -14 l-75 3 -3 79 c-2 57 1 82 10 87 7 5 43 9 80 9 56 0 69 -3 78 -19z
m258 10 c9 -5 12 -30 10 -87 l-3 -79 -75 -3 c-89 -4 -100 5 -100 86 0 83 9 92
88 92 37 0 73 -4 80 -9z m270 -3 c16 -16 16 -140 0 -156 -7 -7 -40 -12 -78
-12 -38 0 -71 5 -78 12 -7 7 -12 40 -12 78 0 38 5 71 12 78 7 7 40 12 78 12
38 0 71 -5 78 -12z m400 0 c14 -14 16 -136 4 -156 -7 -9 -44 -12 -153 -10
l-144 3 -3 79 c-2 57 1 82 10 87 21 14 272 11 286 -3z m-1600 -270 c16 -16 16
-140 0 -156 -7 -7 -40 -12 -78 -12 -38 0 -71 5 -78 12 -13 13 -17 149 -5 161
12 12 148 8 161 -5z m272 -7 c5 -11 10 -44 10 -75 0 -72 -14 -86 -90 -86 -90
0 -90 0 -90 89 0 43 3 81 7 84 3 4 39 7 79 7 62 0 75 -3 84 -19z m798 7 c15
-15 16 -122 2 -149 -10 -18 -25 -19 -350 -19 -325 0 -340 1 -350 19 -14 27
-13 134 2 149 17 17 679 17 696 0z m270 -72 c2 -57 -1 -82 -10 -87 -7 -5 -41
-9 -75 -9 -79 0 -93 13 -93 86 0 88 7 95 98 92 l77 -3 3 -79z m270 6 c2 -46
-2 -79 -9 -88 -15 -18 -140 -19 -157 -2 -16 16 -16 140 0 156 9 9 38 12 88 10
l75 -3 3 -73z"/>
</g>
</svg>
